<svg xmlns="http://www.w3.org/2000/svg" viewBox="0 0 324.81 223.27" xmlns:xlink="http://www.w3.org/1999/xlink">
 <defs>
  <style>
   .cls-1{fill:#111;}
  </style>
 </defs>
 <g id="Layer_2" data-name="Layer 2">
  <g id="Layer_1-2" data-name="Layer 1">
   <path class="cls-1" d="M314.16,102.75c6.34,0,10.65,4.55,10.65,10.78s-4.31,10.54-10.65,10.54a10.12,10.12,0,0,1-10.54-10.54C303.62,107.3,308.05,102.75,314.16,102.75Z">
   </path>
   <path class="cls-1" d="M287.93,102.75c6.35,0,10.66,4.55,10.66,10.78s-4.31,10.54-10.66,10.54a10.12,10.12,0,0,1-10.54-10.54C277.39,107.3,281.82,102.75,287.93,102.75Z">
   </path>
   <path class="cls-1" d="M253.33,103.75V142a29,29,0,0,0-22-10.36c-16.79,0-30.4,15-30.4,33.56s13.61,33.55,30.4,33.55a29,29,0,0,0,22-10.36v9h16.89V103.75Zm-18,79.78a18.36,18.36,0,1,1,18-18.36A18.16,18.16,0,0,1,235.36,183.53Z">
   </path>
   <path class="cls-1" d="M279.55,132.73v62.76c0,10.66-1.32,12.34-12.58,12.34v15.44h2.28c20.15,0,26.82-6.35,27.17-25.86h0V132.73Z">
   </path>
   <path class="cls-1" d="M170.47,131.41a22.72,22.72,0,0,0-18.68,9.14v-7.82H134.9v64.68h16.85V159.85h0a13.44,13.44,0,0,1,26.86,0h0v37.56H195.5v-39C195.5,141.48,185.8,131.41,170.47,131.41Z">
   </path>
   <path class="cls-1" d="M305.77,132.73h16.89v64.68H305.77Z">
   </path>
   <path class="cls-1" d="M108.68,132.73V142a29,29,0,0,0-22-10.36c-16.79,0-30.39,15-30.39,33.56s13.6,33.55,30.39,33.55a29,29,0,0,0,22-10.36v9h16.88V132.73Zm-18,50.8a18.36,18.36,0,1,1,18-18.36A18.16,18.16,0,0,1,90.71,183.53Z">
   </path>
   <path class="cls-1" d="M26.35,171.42l-9.94,11.13v15.57H0V103.75H16.41v59.76l26.23-30.06H62.4L38.09,161,63.6,198.12H44.67Z">
   </path>
   <path class="cls-1" d="M233.87,7.72A10,10,0,0,0,222.72.44a10.36,10.36,0,0,0-1.18.25C203.89,5.52,183.25,32,176.9,40.59h0l-.05.07L176,41.82A14,14,0,0,0,164.9,30.26l6.64-2.34a6.16,6.16,0,0,0-2-12H154.85a6.15,6.15,0,0,0-2,12l6.64,2.34a14,14,0,0,0-11,11l-.47-.64-.05-.06h0c-6.34-8.62-27-35.07-44.64-39.9a9.52,9.52,0,0,0-1.18-.25A10,10,0,0,0,90.94,7.72a19.11,19.11,0,0,0,.12,9.16C93.2,26.17,100.81,37,112.18,43l-.07,0,5.16,2.59h0a27.68,27.68,0,0,0-3.08.89,19.35,19.35,0,0,0-3.31,1.52,6.23,6.23,0,0,0-2.72,7.39,7,7,0,0,0,.52,1.11c2,3.31,6.8,6,12.61,6.83,9.47,1.41,21.49-1.93,27.55-15A14,14,0,0,0,157.05,57c-6.05-.1-12.77.5-15,5.66a14.63,14.63,0,0,0-1,5.81h42.26c0-3.71-.76-7.53-4.32-9.46s-8-1.9-12.15-1.82a14,14,0,0,0,8.88-9.44c6,13.58,18.21,17.06,27.84,15.62,5.8-.87,10.66-3.52,12.6-6.83a6.18,6.18,0,0,0-2.2-8.5,19.25,19.25,0,0,0-3.3-1.52,27.68,27.68,0,0,0-3.08-.89h0l5.16-2.59-.08,0c11.37-6,19-16.85,21.12-26.14A19,19,0,0,0,233.87,7.72Z">
   </path>
   <path class="cls-1" d="M141.43,74.48a45.46,45.46,0,0,0,2,9.37h37.29a53.41,53.41,0,0,0,2.16-10.23H141.33C141.36,73.91,141.4,74.2,141.43,74.48Z">
   </path>
   <path class="cls-1" d="M155.78,100.17c1.53.92,4.77,3,6.72,2.57,7.89-1.86,13-7.19,16.18-13.78H145.51A27.82,27.82,0,0,0,155.78,100.17Z">
   </path>
   <polygon class="cls-1" points="169.85 2.99 165.09 6.55 162.17 0 159.25 6.55 154.49 2.99 154.49 12.34 169.85 12.34 169.85 2.99">
   </polygon>
  </g>
 </g>
</svg>